<!DOCTYPE svg PUBLIC "-//W3C//DTD SVG 20010904//EN" "http://www.w3.org/TR/2001/REC-SVG-20010904/DTD/svg10.dtd"[]><svg version="1.0" xmlns="http://www.w3.org/2000/svg" width="42" height="55" viewBox="0 0 500.000000 301.000000" preserveAspectRatio="xMidYMid meet"><g transform="translate(0.000000,301.000000) scale(0.100000,-0.100000)" fill="#000000" stroke="none"><path d="M526 2983 c-3 -16 -121 -683 -261 -1483 -140 -800 -258 -1465 -260 -1477 l-5 -23 2235 0 c1229 0 2235 1 2235 3 1 1 25 136 53 300 l53 297 -1939 0 -1939 0 6 27 c3 16 73 413 156 883 82 470 152 865 155 878 l5 22 1938 0 1937 0 49 278 c26 152 50 287 53 300 l5 22 -2235 0 -2235 0 -6 -27z" /></g></svg>